<svg width="307" height="475" viewBox="0 0 307 475" fill="none" xmlns="http://www.w3.org/2000/svg">
<path d="M188.1 48H231.325V262.225H292.125V299.275H231.325V371H191.9V299.275H11.875V263.65L188.1 48ZM191.9 262.225V101.675L60.8 262.225H191.9Z" fill="black"/>
<path d="M35.592 81H16.776V50.28H35.08C38.4933 50.28 41.032 51.0693 42.696 52.648C44.36 54.184 45.192 56.104 45.192 58.408C45.192 61.9067 43.6133 64.2533 40.456 65.448C44.0827 66.6427 45.896 69.0533 45.896 72.68C45.896 75.112 45.0853 77.1173 43.464 78.696C41.8427 80.232 39.2187 81 35.592 81ZM25.672 68.264V74.92H32.968C35.6987 74.92 37.064 73.832 37.064 71.656C37.064 69.3947 35.6987 68.264 32.968 68.264H25.672ZM25.608 56.36V62.888H32.392C34.952 62.888 36.232 61.8213 36.232 59.688C36.232 57.4693 34.9307 56.36 32.328 56.36H25.608Z" fill="black"/>
</svg>
