<svg width="110" height="110" viewBox="0 0 110 110" fill="none" xmlns="http://www.w3.org/2000/svg">
<path d="M110 55C110 85.4 85.4 110 55 110C24.6 110 0 85.4 0 55C0 24.6 24.6 0 55 0C85.4 0 110 24.6 110 55Z" fill="#EC732C"/>
<path d="M24 46.3C24.6 44.8 25.8 44.4 27.3 44.5C30 44.5 32.6 44.5 35.3 44.5C36.2 44.5 36.8 44.2 37.4 43.6C41.4 39.1 45.3 34.6 49.3 30.1C49.5 29.8 49.8 29.6 50 29.3C50.9 28.5 51.9 28 53.1 28.5C54.3 29 54.4 30.1 54.4 31.2C54.4 44.8 54.4 58.5 54.4 72.1C54.4 74.8 54.4 77.4 54.4 80.1C54.4 80.6 54.5 81.2 54.3 81.7C53.9 82.5 53.5 83.6 52.9 83.9C52.2 84.2 51.1 83.8 50.3 83.3C49.6 82.9 49.1 82.1 48.5 81.5C44.7 77.2 41 73 37.2 68.7C36.8 68.2 36 67.9 35.4 67.9C32.7 67.8 30 67.8 27.3 67.9C25.8 67.9 24.6 67.5 24 66.1V46.3Z" fill="white"/>
<path d="M85 58.3C84.5 60.6 84.1 62.9 83.3 65.1C81.1 71.3 77 75.9 71.3 79C69.7 79.8 68.4 79.6 67.8 78.4C67.1 77.1 67.6 75.9 69.2 75C76.5 70.9 80.4 64.6 80.4 56.2C80.4 48.1 76.5 41.9 69.5 37.8C68.4 37.2 67.5 36.5 67.6 35.1C67.8 33.4 69.5 32.6 71.2 33.5C74.9 35.4 77.9 38 80.3 41.4C82.9 45.1 84.5 49.2 84.9 53.7C84.9 53.9 85 54.1 85.1 54.3V58.3H85Z" fill="white"/>
<path d="M73.1996 56.9C72.9996 62.2 70.1996 66.7 65.1996 69.9C63.9996 70.7 62.6996 70.4 61.9996 69.4C61.2996 68.3 61.5996 67 62.6996 66.1C63.8996 65.1 65.2996 64.1 66.2996 62.8C70.1996 57.7 69.0996 51 63.7996 47.1C63.4996 46.9 63.1996 46.7 62.8996 46.5C61.5996 45.5 61.2996 44.2 62.0996 43.1C62.7996 42 64.1996 41.8 65.4996 42.7C67.7996 44.2 69.5996 46 70.9996 48.4C72.4996 50.8 73.1996 53.4 73.1996 56.9Z" fill="white"/>
</svg>
